<svg xmlns="http://www.w3.org/2000/svg" xmlns:xlink="http://www.w3.org/1999/xlink" width="1920" zoomAndPan="magnify" viewBox="0 0 1440 809.999993" height="1080" preserveAspectRatio="xMidYMid meet" version="1.0"><defs><clipPath id="6acaa07e50"><path d="M 503 285 L 813 285 L 813 800.714844 L 503 800.714844 Z M 503 285 " clip-rule="nonzero"/></clipPath></defs><g clip-path="url(#6acaa07e50)"><path fill="#ebb296" d="M 639.617188 406.890625 C 624.511719 411.828125 604.472656 291.953125 582.480469 304.1875 C 560.492188 316.421875 605.910156 443.078125 592.757812 461.171875 C 579.605469 479.265625 501.40625 431.875 503.355469 450.894531 C 505.308594 469.910156 584.949219 514.425781 623.070312 564.289062 C 622.96875 669.664062 567.683594 746.664062 515.996094 800.125 L 667.050781 800.125 C 699.523438 728.367188 721 622.371094 718.84375 555.960938 C 743.8125 529.539062 825.40625 413.164062 810.195312 398.050781 C 795.089844 382.9375 752.035156 442.050781 738.882812 434.238281 C 725.726562 426.425781 773.101562 330.609375 753.0625 323.722656 C 733.023438 316.421875 707.128906 400.929688 690.996094 400.929688 C 674.863281 400.929688 689.558594 284.550781 667.050781 285.992188 C 643.519531 288.046875 654.824219 401.957031 639.617188 406.890625 Z M 639.617188 406.890625 " fill-opacity="1" fill-rule="nonzero"/></g><path fill="#be685a" d="M 668.800781 512.164062 C 668.800781 513.191406 668.082031 514.015625 667.050781 514.222656 C 665.921875 514.425781 664.894531 513.707031 664.6875 512.578125 C 661.296875 493.660156 636.328125 467.339844 603.339844 467.339844 C 602.210938 467.339844 601.285156 466.417969 601.285156 465.285156 C 601.285156 464.15625 602.210938 463.230469 603.339844 463.230469 C 638.484375 463.230469 665.101562 491.5 668.695312 511.855469 C 668.800781 511.960938 668.800781 512.0625 668.800781 512.164062 Z M 755.015625 460.96875 C 713.398438 433.828125 654.308594 413.058594 629.441406 412.648438 C 628.3125 412.648438 627.386719 413.574219 627.386719 414.703125 C 627.386719 415.835938 628.3125 416.761719 629.441406 416.761719 C 651.023438 417.171875 708.464844 435.472656 752.855469 464.359375 C 753.78125 464.976562 755.117188 464.667969 755.734375 463.742188 C 755.9375 463.433594 756.042969 463.023438 756.042969 462.613281 C 755.9375 461.996094 755.632812 461.378906 755.015625 460.96875 Z M 755.015625 460.96875 " fill-opacity="1" fill-rule="nonzero"/></svg>